<svg xmlns="http://www.w3.org/2000/svg" xmlns:xlink="http://www.w3.org/1999/xlink" version="1.1" viewBox="99.18 440.75 992.17 309.03">
<g id="surface1">
<path style=" stroke:none;fill-rule:nonzero;fill:rgb(69.444275%,70.423889%,70.175171%);fill-opacity:1;" d="M 676.257812 599.390625 L 679.414062 591.023438 L 629.695312 591.023438 L 661.71875 506.882812 L 599.59375 506.882812 C 593.832031 522.058594 588.09375 537.261719 582.378906 552.484375 L 573.191406 574.632812 L 588.550781 591.023438 L 517.78125 591.023438 L 502.421875 631.6875 C 545.671875 626.246094 585.375 619.777344 621.535156 612.28125 L 622.015625 610.976562 L 622.085938 610.976562 L 621.535156 612.28125 C 640.78125 608.304688 659.023438 604.007812 676.257812 599.390625 M 778.570312 564.414062 L 782.480469 554.128906 L 794.070312 554.128906 C 798.457031 554.128906 802.34375 554.472656 805.726562 555.160156 C 834.4375 546.015625 861.84375 539.707031 887.945312 536.230469 C 888.128906 536.1875 888.3125 536.164062 888.496094 536.164062 C 887.628906 533.464844 886.484375 530.90625 885.066406 528.484375 C 881.273438 521.808594 875.214844 516.550781 866.894531 512.710938 C 863.832031 511.292969 860.425781 510.128906 856.675781 509.214844 C 850.871094 507.796875 844.289062 507.019531 836.929688 506.882812 L 739.003906 506.882812 L 707.390625 590.472656 C 724.761719 585.035156 740.945312 579.273438 755.941406 573.195312 C 763.578125 570.085938 771.121094 567.160156 778.570312 564.414062 M 772.8125 579.84375 L 774.113281 576.347656 C 768.902344 578.3125 763.667969 580.371094 758.410156 582.519531 C 741.449219 589.421875 723.003906 595.890625 703.070312 601.925781 L 701.769531 605.355469 C 721.289062 599.457031 739.347656 593.148438 755.941406 586.429688 C 761.609375 584.144531 767.234375 581.949219 772.8125 579.84375 M 766.980469 595.207031 L 768.285156 591.777344 C 764.992188 593.058594 761.703125 594.359375 758.410156 595.6875 C 739.894531 603.230469 719.574219 610.246094 697.445312 616.738281 L 696.144531 620.234375 C 717.8125 613.882812 737.746094 607 755.941406 599.59375 C 759.644531 598.085938 763.324219 596.621094 766.980469 595.207031 M 818.753906 561.261719 C 818.847656 561.398438 818.960938 561.535156 819.097656 561.671875 C 819.738281 562.3125 820.289062 563.023438 820.746094 563.800781 C 845.066406 556.757812 868.425781 551.820312 890.828125 548.988281 C 890.734375 547.890625 890.644531 546.816406 890.554688 545.765625 C 867.648438 548.734375 843.714844 553.902344 818.753906 561.261719 M 823.007812 573.195312 C 822.960938 573.925781 822.894531 574.679688 822.800781 575.457031 C 822.757812 575.777344 822.710938 576.097656 822.664062 576.417969 C 845.933594 569.789062 868.335938 565.078125 889.867188 562.289062 C 890.050781 561.148438 890.210938 560.027344 890.347656 558.929688 C 868.816406 561.71875 846.367188 566.472656 823.007812 573.195312 M 818.894531 587.527344 C 818.253906 588.804688 817.566406 590.0625 816.835938 591.296875 C 840.929688 584.121094 864.105469 579 886.371094 575.9375 C 886.417969 575.753906 886.460938 575.59375 886.507812 575.457031 C 886.828125 574.449219 887.148438 573.46875 887.46875 572.507812 C 865.523438 575.523438 842.664062 580.53125 818.894531 587.527344 M 880.609375 589.925781 C 881.15625 588.78125 881.707031 587.617188 882.253906 586.429688 C 855.96875 590.359375 828.355469 597.148438 799.417969 606.792969 C 795.761719 608.578125 791.78125 609.949219 787.484375 610.910156 C 777.929688 614.339844 768.238281 618.039062 758.410156 622.019531 C 736.832031 630.796875 712.808594 638.863281 686.339844 646.226562 L 684.96875 649.722656 C 711.023438 642.5 734.683594 634.566406 755.941406 625.925781 C 800.332031 607.867188 841.886719 595.867188 880.609375 589.925781 M 872.3125 604.464844 C 873.136719 603.273438 873.933594 602.0625 874.710938 600.828125 C 838.414062 606.953125 799.644531 618.40625 758.410156 635.183594 C 735.324219 644.601562 709.449219 653.175781 680.785156 660.898438 L 679.414062 664.398438 C 707.664062 656.761719 733.175781 648.328125 755.941406 639.09375 C 797.175781 622.316406 835.96875 610.773438 872.3125 604.464844 M 1000.683594 543.636719 L 998.625 546.3125 C 1019.289062 551.019531 1038.808594 558.175781 1057.1875 567.777344 C 1070.125 574.542969 1081.507812 581.195312 1091.339844 587.730469 L 1091.339844 585.675781 C 1080.914062 578.496094 1068.550781 571.183594 1054.238281 563.730469 C 1037.324219 554.953125 1019.472656 548.253906 1000.683594 543.636719 M 983.335938 566.472656 L 981.207031 569.285156 C 998.71875 572.027344 1015.472656 576.460938 1031.472656 582.589844 L 1033.050781 580.394531 C 1017.230469 574.085938 1000.660156 569.445312 983.335938 566.472656 M 992.109375 554.953125 L 990.054688 557.695312 C 1013.871094 562.265625 1036.25 570.015625 1057.1875 580.941406 C 1070.125 587.707031 1081.507812 594.359375 1091.339844 600.898438 L 1091.339844 598.839844 C 1080.914062 591.664062 1068.550781 584.347656 1054.238281 576.898438 C 1034.808594 566.792969 1014.101562 559.480469 992.109375 554.953125 M 974.417969 578.269531 L 972.15625 581.21875 C 990.167969 583.410156 1007.402344 587.34375 1023.859375 593.011719 L 1025.507812 590.679688 C 1009.277344 584.828125 992.25 580.691406 974.417969 578.269531 M 965.230469 590.335938 L 962.96875 593.355469 C 981.484375 595.046875 999.199219 598.476562 1016.113281 603.640625 L 1017.828125 601.238281 C 1001.09375 595.847656 983.5625 592.210938 965.230469 590.335938 M 1035.449219 581.355469 L 1035.382812 584.097656 C 1042.832031 587.066406 1050.101562 590.40625 1057.1875 594.109375 C 1070.125 600.875 1081.507812 607.527344 1091.339844 614.0625 L 1091.339844 612.007812 C 1080.914062 604.828125 1068.550781 597.515625 1054.238281 590.0625 C 1048.113281 586.863281 1041.851562 583.960938 1035.449219 581.355469 M 1035.105469 594.382812 L 1035.039062 597.125 C 1042.582031 600.144531 1049.964844 603.527344 1057.1875 607.273438 C 1070.125 614.039062 1081.507812 620.691406 1091.339844 627.230469 L 1091.339844 625.171875 C 1080.914062 617.996094 1068.550781 610.679688 1054.238281 603.230469 C 1047.976562 599.984375 1041.597656 597.035156 1035.105469 594.382812 M 1057.1875 561.191406 C 1070.125 567.957031 1081.507812 574.609375 1091.339844 581.148438 L 1091.339844 506.882812 L 1028.59375 506.882812 L 1002.878906 540.757812 C 1021.941406 545.46875 1040.046875 552.277344 1057.1875 561.191406 M 1091.339844 653.5625 L 1091.339844 651.503906 C 1080.914062 644.328125 1068.550781 637.011719 1054.238281 629.5625 C 1047.746094 626.179688 1041.117188 623.140625 1034.351562 620.441406 L 1034.285156 623.183594 C 1042.101562 626.292969 1049.738281 629.789062 1057.1875 633.675781 C 1070.125 640.394531 1081.507812 647.023438 1091.339844 653.5625 M 1091.339844 640.394531 L 1091.339844 638.339844 C 1080.914062 631.160156 1068.550781 623.847656 1054.238281 616.394531 C 1047.886719 613.105469 1041.394531 610.109375 1034.765625 607.410156 L 1034.695312 610.15625 C 1042.375 613.171875 1049.875 616.601562 1057.1875 620.441406 C 1070.125 627.207031 1081.507812 633.859375 1091.339844 640.394531 M 1008.15625 614.542969 L 1010.007812 612.007812 C 992.773438 607.113281 974.714844 604.027344 955.835938 602.75 L 953.433594 605.835938 C 972.5 606.933594 990.738281 609.835938 1008.15625 614.542969 M 761.085938 610.703125 L 762.386719 607.273438 C 761.0625 607.777344 759.734375 608.304688 758.410156 608.851562 C 738.339844 617.035156 716.144531 624.578125 691.824219 631.480469 L 690.519531 634.980469 C 714.386719 628.167969 736.191406 620.761719 755.941406 612.761719 C 757.679688 612.074219 759.394531 611.390625 761.085938 610.703125 M 673.515625 606.726562 L 674.816406 603.230469 C 625.078125 616.257812 567.179688 626.886719 501.121094 635.117188 L 499.816406 638.613281 C 565.921875 630.429688 623.820312 619.800781 673.515625 606.726562 M 224.285156 506.882812 L 162.910156 506.882812 L 121.421875 616.601562 C 140.808594 620.257812 160.03125 623.503906 179.09375 626.339844 L 224.285156 506.882812 M 368.769531 506.882812 L 307.671875 506.882812 L 258.847656 635.734375 C 278.960938 637.46875 298.871094 638.75 318.574219 639.574219 L 368.769531 506.882812 M 478.96875 506.882812 L 417.597656 506.882812 L 367.054688 640.464844 C 387.996094 640.371094 408.679688 639.734375 429.117188 638.542969 L 478.96875 506.882812 M 662.472656 635.9375 L 663.777344 632.441406 C 648.644531 636.191406 632.804688 639.734375 616.253906 643.070312 L 631.617188 643.070312 C 642.222656 640.785156 652.507812 638.40625 662.472656 635.9375 M 667.960938 621.332031 L 669.261719 617.835938 C 630.863281 627.664062 587.707031 636.074219 539.796875 643.070312 L 548.160156 643.070312 L 547.339844 645.265625 C 591.773438 638.5 631.980469 630.523438 667.960938 621.332031 M 602.679688 662.132812 L 603.980469 658.636719 C 583.132812 662.613281 561.191406 666.292969 538.148438 669.679688 L 536.847656 673.175781 C 559.886719 669.792969 581.832031 666.113281 602.679688 662.132812 M 608.027344 647.941406 L 609.398438 644.441406 C 588.507812 648.511719 566.515625 652.28125 543.429688 655.757812 L 542.128906 659.1875 C 565.214844 655.757812 587.179688 652.007812 608.027344 647.941406 M 591.914062 690.523438 L 593.28125 686.957031 C 572.4375 690.753906 550.5625 694.25 527.65625 697.449219 L 526.355469 700.949219 C 549.257812 697.792969 571.109375 694.320312 591.914062 690.523438 M 597.261719 676.328125 L 598.632812 672.832031 C 577.785156 676.71875 555.863281 680.308594 532.871094 683.597656 L 531.566406 687.097656 C 554.5625 683.804688 576.460938 680.214844 597.261719 676.328125 M 479.382812 700.261719 L 480.683594 696.765625 C 436.109375 701.566406 390.394531 703.554688 343.535156 702.730469 L 342.230469 706.023438 C 389.089844 706.9375 434.808594 705.015625 479.382812 700.261719 M 424.042969 652.054688 L 425.34375 648.558594 C 404.910156 649.652344 384.246094 650.203125 363.351562 650.203125 L 362.050781 653.632812 C 382.941406 653.632812 403.605469 653.105469 424.042969 652.054688 M 418.96875 665.425781 L 420.269531 661.996094 C 399.882812 663.003906 379.238281 663.460938 358.347656 663.367188 L 357.113281 666.730469 C 377.960938 666.867188 398.578125 666.433594 418.96875 665.425781 M 353.410156 676.46875 L 352.105469 679.894531 C 372.953125 680.078125 393.550781 679.734375 413.894531 678.867188 L 415.195312 675.4375 C 394.804688 676.351562 374.210938 676.695312 353.410156 676.46875 M 348.472656 689.632812 L 347.171875 692.992188 C 375.378906 693.402344 403.171875 692.785156 430.554688 691.140625 L 409.230469 691.140625 L 410.121094 688.808594 C 389.777344 689.632812 369.226562 689.90625 348.472656 689.632812 M 310.757812 658.980469 C 311.214844 657.835938 311.695312 656.71875 312.195312 655.621094 C 292.449219 654.707031 272.515625 653.332031 252.398438 651.503906 L 251.027344 654.796875 C 271.144531 656.671875 291.054688 658.066406 310.757812 658.980469 M 316.105469 646.019531 C 316.378906 645.289062 316.652344 644.558594 316.929688 643.824219 L 317.410156 642.660156 C 297.660156 641.835938 277.726562 640.554688 257.613281 638.820312 L 256.238281 642.109375 C 276.402344 643.894531 296.355469 645.195312 316.105469 646.019531 M 304.515625 671.804688 C 305.066406 670.707031 305.613281 669.609375 306.164062 668.511719 C 286.460938 667.550781 266.550781 666.089844 246.433594 664.121094 C 245.792969 665.175781 245.152344 666.226562 244.515625 667.277344 C 264.675781 669.289062 284.675781 670.796875 304.515625 671.804688 M 237.726562 676.398438 C 236.8125 677.449219 235.875 678.476562 234.914062 679.484375 C 255.851562 681.722656 276.605469 683.4375 297.179688 684.625 C 297.820312 683.53125 298.480469 682.433594 299.167969 681.335938 C 278.871094 680.191406 258.390625 678.546875 237.726562 676.398438 M 277.910156 709.65625 C 278.871094 708.605469 279.832031 707.554688 280.789062 706.5 C 222.410156 702.433594 162.316406 694.160156 100.507812 681.679688 C 100.324219 682.730469 100.164062 683.78125 100.027344 684.832031 C 160.96875 697.222656 220.261719 705.496094 277.910156 709.65625 M 288.46875 697.242188 C 289.246094 696.148438 290.046875 695.074219 290.871094 694.023438 C 268.835938 692.648438 246.59375 690.683594 224.148438 688.125 C 222.867188 688.902344 221.542969 689.65625 220.171875 690.386719 C 219.851562 690.570312 219.53125 690.753906 219.210938 690.9375 C 242.523438 693.679688 265.613281 695.78125 288.46875 697.242188 M 176.695312 632.578125 L 177.929688 629.355469 C 158.863281 626.523438 139.640625 623.296875 120.257812 619.6875 L 119.09375 622.773438 C 138.476562 626.429688 157.675781 629.699219 176.695312 632.578125 M 168.121094 657.539062 C 168.214844 657.21875 168.304688 656.898438 168.398438 656.578125 L 169.152344 654.386719 C 149.902344 651.414062 130.5 648.03125 110.929688 644.238281 C 110.519531 645.242188 110.152344 646.246094 109.835938 647.253906 C 129.402344 651.09375 148.832031 654.523438 168.121094 657.539062 M 165.722656 670.363281 C 165.8125 669.265625 165.929688 668.167969 166.066406 667.070312 C 146.40625 664.007812 126.589844 660.488281 106.609375 656.511719 C 106.292969 657.5625 105.972656 658.59375 105.652344 659.597656 C 125.859375 663.621094 145.882812 667.207031 165.722656 670.363281 M 167.710938 683.871094 C 167.164062 682.730469 166.726562 681.539062 166.40625 680.308594 C 145.46875 677.015625 124.347656 673.242188 103.046875 668.992188 C 102.769531 670.042969 102.519531 671.09375 102.292969 672.144531 C 124.328125 676.582031 146.132812 680.488281 167.710938 683.871094 M 172.375 645.058594 L 173.472656 641.835938 C 154.316406 638.957031 135.023438 635.664062 115.59375 631.960938 L 114.429688 635.046875 C 133.902344 638.796875 153.21875 642.132812 172.375 645.058594 M 643.546875 442.628906 C 640.578125 443.863281 637.949219 445.578125 635.664062 447.769531 C 633.375 449.964844 631.570312 452.570312 630.246094 455.589844 C 628.875 458.605469 628.1875 461.917969 628.1875 465.53125 C 628.1875 469.1875 628.875 472.550781 630.246094 475.613281 C 631.617188 478.675781 633.445312 481.328125 635.730469 483.566406 C 638.015625 485.761719 640.644531 487.476562 643.617188 488.710938 C 646.589844 489.945312 649.695312 490.5625 652.941406 490.5625 C 654.542969 490.5625 656.167969 490.402344 657.8125 490.082031 C 659.414062 489.761719 661.148438 489.28125 663.023438 488.640625 L 664.257812 488.160156 L 664.257812 473.691406 C 661.148438 477.03125 657.628906 478.699219 653.695312 478.699219 C 651.914062 478.699219 650.246094 478.355469 648.691406 477.667969 C 647.136719 477.03125 645.789062 476.113281 644.644531 474.925781 C 643.503906 473.785156 642.609375 472.410156 641.972656 470.8125 C 641.332031 469.210938 641.011719 467.476562 641.011719 465.601562 C 641.011719 463.773438 641.332031 462.058594 641.972656 460.457031 C 642.609375 458.902344 643.503906 457.554688 644.644531 456.410156 C 645.789062 455.222656 647.136719 454.308594 648.691406 453.667969 C 650.246094 452.984375 651.9375 452.640625 653.765625 452.640625 C 657.925781 452.640625 661.421875 454.375 664.257812 457.851562 L 664.257812 443.246094 C 662.292969 442.421875 660.394531 441.804688 658.566406 441.394531 C 656.738281 440.980469 654.886719 440.777344 653.011719 440.777344 C 649.71875 440.777344 646.566406 441.394531 643.546875 442.628906 M 684.488281 460.457031 C 685.171875 458.902344 686.109375 457.53125 687.300781 456.34375 C 688.53125 455.199219 689.949219 454.308594 691.550781 453.667969 C 693.148438 452.984375 694.84375 452.640625 696.625 452.640625 C 698.453125 452.640625 700.167969 452.984375 701.769531 453.667969 C 703.367188 454.308594 704.785156 455.199219 706.019531 456.34375 C 707.253906 457.53125 708.214844 458.902344 708.898438 460.457031 C 709.632812 462.058594 709.996094 463.792969 709.996094 465.667969 C 709.996094 467.542969 709.632812 469.28125 708.898438 470.882812 C 708.214844 472.480469 707.253906 473.851562 706.019531 474.996094 C 704.785156 476.136719 703.367188 477.050781 701.769531 477.738281 C 700.167969 478.378906 698.453125 478.699219 696.625 478.699219 C 694.84375 478.699219 693.148438 478.378906 691.550781 477.738281 C 689.949219 477.050781 688.53125 476.136719 687.300781 474.996094 C 686.109375 473.851562 685.171875 472.480469 684.488281 470.882812 C 683.753906 469.28125 683.390625 467.542969 683.390625 465.667969 C 683.390625 463.792969 683.753906 462.058594 684.488281 460.457031 M 677.902344 447.976562 C 675.617188 450.21875 673.8125 452.847656 672.484375 455.863281 C 671.207031 458.925781 670.566406 462.195312 670.566406 465.667969 C 670.566406 469.1875 671.207031 472.457031 672.484375 475.476562 C 673.8125 478.492188 675.617188 481.121094 677.902344 483.359375 C 680.1875 485.601562 682.933594 487.382812 686.132812 488.710938 C 689.332031 489.945312 692.832031 490.5625 696.625 490.5625 C 700.464844 490.5625 703.984375 489.945312 707.183594 488.710938 C 710.386719 487.382812 713.152344 485.601562 715.480469 483.359375 C 717.769531 481.121094 719.574219 478.492188 720.898438 475.476562 C 722.179688 472.457031 722.820312 469.1875 722.820312 465.667969 C 722.820312 462.195312 722.179688 458.925781 720.898438 455.863281 C 719.574219 452.847656 717.769531 450.21875 715.480469 447.976562 C 713.152344 445.738281 710.386719 443.976562 707.183594 442.695312 C 703.984375 441.417969 700.464844 440.777344 696.625 440.777344 C 692.832031 440.777344 689.332031 441.417969 686.132812 442.695312 C 682.933594 443.976562 680.1875 445.738281 677.902344 447.976562 M 784.539062 453.464844 C 786.226562 454.148438 787.644531 455.085938 788.789062 456.273438 C 789.929688 457.417969 790.800781 458.8125 791.394531 460.457031 C 792.035156 462.058594 792.355469 463.792969 792.355469 465.667969 C 792.355469 467.589844 792.058594 469.347656 791.464844 470.949219 C 790.824219 472.550781 789.929688 473.945312 788.789062 475.132812 C 787.691406 476.320312 786.296875 477.234375 784.605469 477.875 C 782.914062 478.5625 781.015625 478.902344 778.914062 478.902344 L 776.101562 478.902344 L 776.101562 452.503906 L 778.914062 452.503906 C 781.015625 452.503906 782.890625 452.824219 784.539062 453.464844 M 805.179688 465.667969 C 805.179688 462.558594 804.558594 459.566406 803.328125 456.6875 C 802.136719 453.851562 800.492188 451.359375 798.390625 449.210938 C 796.285156 447.0625 793.839844 445.324219 791.050781 444 C 788.21875 442.71875 785.199219 442.078125 782 442.078125 L 763.828125 442.078125 L 763.828125 489.257812 L 782 489.257812 C 785.246094 489.257812 788.261719 488.617188 791.050781 487.339844 C 793.886719 486.011719 796.355469 484.277344 798.457031 482.125 C 800.558594 479.976562 802.207031 477.464844 803.394531 474.582031 C 804.585938 471.703125 805.179688 468.730469 805.179688 465.667969 M 876.425781 442.078125 L 864.152344 442.078125 L 864.152344 460.320312 L 846.460938 460.320312 L 846.460938 442.078125 L 834.183594 442.078125 L 834.183594 489.257812 L 846.460938 489.257812 L 846.460938 469.785156 L 864.152344 469.785156 L 864.152344 489.257812 L 876.425781 489.257812 L 876.425781 442.078125 M 742.84375 442.078125 L 730.570312 442.078125 L 730.570312 489.257812 L 757.519531 489.257812 L 757.519531 478.902344 L 742.84375 478.902344 L 742.84375 442.078125 M 1029.140625 471.773438 L 1018.101562 471.773438 L 1023.65625 456.070312 L 1029.140625 471.773438 M 1030.308594 442.078125 L 1016.933594 442.078125 L 998.96875 489.257812 L 1012.066406 489.257812 L 1014.878906 481.097656 L 1032.363281 481.097656 L 1035.175781 489.257812 L 1048.273438 489.257812 L 1030.308594 442.078125 M 1088.046875 442.078125 L 1075.773438 442.078125 L 1075.773438 489.257812 L 1088.046875 489.257812 Z M 1065.898438 442.078125 L 1053.621094 442.078125 L 1053.621094 489.257812 L 1065.898438 489.257812 Z M 911.949219 471.773438 L 900.90625 471.773438 L 906.460938 456.070312 L 911.949219 471.773438 M 913.113281 442.078125 L 899.742188 442.078125 L 881.773438 489.257812 L 894.875 489.257812 L 897.683594 481.097656 L 915.171875 481.097656 L 917.980469 489.257812 L 931.082031 489.257812 L 913.113281 442.078125 M 942.1875 442.078125 L 929.367188 442.078125 L 943.425781 489.257812 L 955.902344 489.257812 L 965.230469 461.898438 L 974.488281 489.257812 L 986.96875 489.257812 L 1001.027344 442.078125 L 988.203125 442.078125 L 980.109375 472.527344 L 970.097656 442.078125 L 960.359375 442.078125 L 950.351562 472.527344 L 942.1875 442.078125 "/>
<path style=" stroke:none;fill-rule:nonzero;fill:rgb(69.444275%,70.423889%,70.175171%);fill-opacity:1;" d="M 572.917969 453.601562 L 581.558594 447.085938 L 590.199219 453.601562 L 598.835938 447.085938 L 607.546875 453.601562 L 607.546875 447.289062 L 598.835938 440.84375 L 590.199219 447.289062 L 581.558594 440.84375 L 572.917969 447.289062 L 564.207031 440.84375 L 555.566406 447.289062 L 546.925781 440.84375 L 538.285156 447.289062 L 538.285156 453.601562 L 546.925781 447.085938 L 555.566406 453.601562 L 564.207031 447.085938 Z M 581.558594 453.464844 L 572.917969 459.976562 L 564.207031 453.464844 L 555.566406 459.976562 L 546.925781 453.464844 L 538.285156 459.976562 L 538.285156 466.285156 L 546.925781 459.773438 L 555.566406 466.285156 L 564.207031 459.773438 L 572.917969 466.285156 L 581.558594 459.773438 L 590.199219 466.285156 L 598.835938 459.773438 L 607.546875 466.285156 L 607.546875 459.976562 L 598.835938 453.464844 L 590.199219 459.976562 L 581.558594 453.464844 M 546.925781 472.253906 L 555.566406 478.699219 L 564.207031 472.253906 L 572.917969 478.699219 L 581.558594 472.253906 L 590.199219 478.699219 L 598.835938 472.253906 L 607.546875 478.699219 L 607.546875 472.527344 L 598.835938 466.078125 L 590.199219 472.527344 L 581.558594 466.078125 L 572.917969 472.527344 L 564.207031 466.078125 L 555.566406 472.527344 L 546.925781 466.078125 L 538.285156 472.527344 L 538.285156 478.699219 L 546.925781 472.253906 M 555.566406 485.074219 L 546.925781 478.5625 L 538.285156 485.074219 L 538.285156 491.316406 L 546.925781 484.800781 L 555.566406 491.316406 L 564.207031 484.800781 L 572.917969 491.316406 L 581.558594 484.800781 L 590.199219 491.316406 L 598.835938 484.800781 L 607.546875 491.316406 L 607.546875 485.074219 L 598.835938 478.5625 L 590.199219 485.074219 L 581.558594 478.5625 L 572.917969 485.074219 L 564.207031 478.5625 Z M 555.566406 485.074219 "/>
<path style=" stroke:none;fill-rule:nonzero;fill:rgb(87.191772%,79.266357%,64.173889%);fill-opacity:1;" d="M 705.882812 594.453125 L 704.578125 597.878906 C 723.003906 592.257812 740.125 586.222656 755.941406 579.777344 C 762.570312 577.078125 769.152344 574.519531 775.691406 572.097656 L 776.996094 568.738281 C 770.824219 571.023438 764.628906 573.421875 758.410156 575.9375 C 742.273438 582.519531 724.761719 588.691406 705.882812 594.453125 M 769.863281 587.527344 L 771.164062 584.097656 C 766.960938 585.695312 762.707031 587.367188 758.410156 589.101562 C 740.671875 596.324219 721.289062 603.070312 700.257812 609.332031 L 698.957031 612.828125 C 719.527344 606.703125 738.523438 600.097656 755.941406 593.011719 C 760.605469 591.089844 765.246094 589.261719 769.863281 587.527344 M 765.335938 599.527344 C 763.050781 600.394531 760.742188 601.308594 758.410156 602.269531 C 739.117188 610.132812 717.859375 617.421875 694.636719 624.144531 L 693.332031 627.640625 C 716.097656 621.011719 736.96875 613.859375 755.941406 606.175781 C 758.640625 605.082031 761.335938 604.007812 764.035156 602.953125 L 765.335938 599.527344 M 811.691406 556.804688 C 813.109375 557.351562 814.390625 557.992188 815.53125 558.722656 C 841.453125 550.953125 866.300781 545.535156 890.074219 542.472656 C 889.890625 541.375 889.660156 540.300781 889.386719 539.25 C 889.25 539.292969 889.089844 539.316406 888.90625 539.316406 C 864.355469 542.609375 838.621094 548.4375 811.691406 556.804688 M 822.183594 566.816406 C 822.503906 567.730469 822.734375 568.714844 822.871094 569.765625 C 846.367188 563.089844 868.976562 558.382812 890.691406 555.636719 C 890.734375 554.496094 890.78125 553.398438 890.828125 552.347656 C 868.882812 555.136719 846.003906 559.957031 822.183594 566.816406 M 820.675781 583.410156 C 820.675781 583.457031 820.652344 583.503906 820.605469 583.546875 C 844.105469 576.78125 866.710938 571.960938 888.425781 569.078125 C 888.703125 567.9375 888.953125 566.816406 889.179688 565.71875 C 867.601562 568.554688 845.132812 573.351562 821.773438 580.121094 C 821.453125 581.171875 821.085938 582.269531 820.675781 583.410156 M 813.679688 595.683594 C 812.355469 597.242188 810.9375 598.703125 809.429688 600.074219 C 835.257812 592.074219 860.039062 586.335938 883.765625 582.863281 C 884.175781 581.855469 884.5625 580.851562 884.929688 579.84375 C 884.976562 579.707031 885.042969 579.570312 885.136719 579.433594 C 862.277344 582.679688 838.460938 588.097656 813.679688 595.683594 M 876.90625 597.125 C 877.546875 595.9375 878.1875 594.75 878.828125 593.558594 C 841.339844 599.503906 801.199219 611.183594 758.410156 628.601562 C 736.054688 637.699219 711.09375 646.019531 683.527344 653.5625 L 682.222656 657.058594 C 709.335938 649.652344 733.90625 641.46875 755.941406 632.511719 C 798.914062 615.046875 839.234375 603.25 876.90625 597.125 M 996.363281 549.328125 L 994.375 551.933594 C 1016.59375 556.644531 1037.53125 564.117188 1057.1875 574.359375 C 1070.125 581.125 1081.507812 587.777344 1091.339844 594.316406 L 1091.339844 592.257812 C 1080.914062 585.078125 1068.550781 577.765625 1054.238281 570.3125 C 1036.046875 560.894531 1016.753906 553.902344 996.363281 549.328125 M 987.722656 560.710938 L 985.664062 563.457031 C 1002.898438 566.472656 1019.402344 571.136719 1035.175781 577.445312 L 1035.585938 576.828125 L 1035.585938 577.582031 C 1042.949219 580.554688 1050.148438 583.867188 1057.1875 587.527344 C 1070.125 594.292969 1081.507812 600.945312 1091.339844 607.480469 L 1091.339844 605.421875 C 1080.914062 598.246094 1068.550781 590.929688 1054.238281 583.480469 C 1033.53125 572.738281 1011.359375 565.148438 987.722656 560.710938 M 960.566406 596.507812 L 958.234375 599.59375 C 977.023438 600.964844 994.992188 604.121094 1012.136719 609.058594 L 1013.917969 606.589844 C 996.957031 601.421875 979.175781 598.0625 960.566406 596.507812 M 969.824219 584.300781 L 967.5625 587.25 C 985.847656 589.171875 1003.335938 592.851562 1020.019531 598.292969 L 1021.734375 595.960938 C 1005.230469 590.335938 987.929688 586.453125 969.824219 584.300781 M 978.875 572.371094 L 976.75 575.183594 C 994.488281 577.695312 1011.472656 581.878906 1027.699219 587.730469 L 1029.347656 585.46875 C 1013.300781 579.386719 996.476562 575.023438 978.875 572.371094 M 1034.902344 600.898438 L 1034.832031 603.640625 C 1042.46875 606.65625 1049.921875 610.0625 1057.1875 613.859375 C 1070.125 620.625 1081.507812 627.277344 1091.339844 633.8125 L 1091.339844 631.753906 C 1080.914062 624.578125 1068.550781 617.261719 1054.238281 609.8125 C 1047.929688 606.519531 1041.484375 603.550781 1034.902344 600.898438 M 1035.3125 587.867188 L 1035.175781 590.613281 C 1042.671875 593.582031 1050.011719 596.945312 1057.1875 600.691406 C 1070.125 607.457031 1081.507812 614.109375 1091.339844 620.648438 L 1091.339844 618.589844 C 1080.914062 611.414062 1068.550781 604.097656 1054.238281 596.644531 C 1048.066406 593.445312 1041.757812 590.519531 1035.3125 587.867188 M 1091.339844 646.980469 L 1091.339844 644.921875 C 1080.914062 637.746094 1068.550781 630.429688 1054.238281 622.976562 C 1047.792969 619.640625 1041.234375 616.625 1034.558594 613.925781 L 1034.488281 616.738281 C 1042.214844 619.753906 1049.78125 623.207031 1057.1875 627.09375 C 1070.125 633.8125 1081.507812 640.441406 1091.339844 646.980469 M 1054.238281 636.144531 C 1047.703125 632.761719 1041.027344 629.699219 1034.214844 626.957031 L 1033.394531 655.484375 L 978.328125 655.484375 L 1005.964844 617.492188 C 988.5 612.828125 970.191406 610.015625 951.035156 609.058594 L 849.132812 743.191406 L 914.691406 743.191406 L 944.382812 702.179688 L 1032.089844 702.179688 L 1030.648438 743.191406 L 1091.339844 743.191406 L 1091.339844 658.089844 C 1080.914062 650.910156 1068.550781 643.597656 1054.238281 636.144531 M 855.375 623.664062 C 858.117188 621.289062 860.722656 618.773438 863.191406 616.121094 C 830.230469 622.613281 795.304688 633.355469 758.410156 648.351562 C 754.25 650.042969 750 651.710938 745.65625 653.355469 L 769.519531 743.191406 L 846.046875 743.191406 L 808.539062 646.292969 C 826.871094 642.316406 842.480469 634.773438 855.375 623.664062 M 866.621094 612.074219 C 867.625 610.839844 868.632812 609.582031 869.636719 608.304688 C 834.800781 614.613281 797.726562 625.765625 758.410156 641.765625 C 734.59375 651.460938 707.78125 660.28125 677.972656 668.238281 L 676.667969 671.734375 C 706.019531 663.917969 732.441406 655.230469 755.941406 645.675781 C 795.03125 629.765625 831.921875 618.566406 866.621094 612.074219 M 771.988281 612.488281 L 765.816406 612.488281 C 763.347656 613.445312 760.878906 614.429688 758.410156 615.433594 C 737.5625 623.9375 714.453125 631.753906 689.082031 638.886719 L 687.777344 642.382812 C 712.695312 635.34375 735.414062 627.664062 755.941406 619.34375 C 761.839844 616.964844 767.691406 614.679688 773.496094 612.488281 L 771.988281 612.488281 M 744.902344 653.699219 C 723.78125 661.609375 700.554688 668.902344 675.230469 675.574219 L 649.582031 743.191406 L 710.957031 743.191406 L 744.902344 653.699219 M 665.21875 628.671875 L 666.519531 625.105469 C 630.496094 634.203125 590.335938 642.085938 546.035156 648.761719 L 544.730469 652.257812 C 589.03125 645.585938 629.191406 637.722656 665.21875 628.671875 M 670.703125 614.0625 L 672.007812 610.566406 C 622.265625 623.457031 564.4375 633.949219 498.511719 642.042969 L 498.101562 643.070312 L 516.273438 643.070312 C 574.378906 635.34375 625.855469 625.675781 670.703125 614.0625 M 646.703125 643.070312 L 659.730469 643.070312 L 661.035156 639.640625 C 656.328125 640.785156 651.546875 641.925781 646.703125 643.070312 M 605.351562 655.070312 L 606.65625 651.574219 C 585.808594 655.597656 563.863281 659.300781 540.824219 662.683594 L 539.453125 666.179688 C 562.539062 662.796875 584.503906 659.09375 605.351562 655.070312 M 600.003906 669.265625 L 601.304688 665.769531 C 580.460938 669.699219 558.539062 673.3125 535.542969 676.601562 L 534.171875 680.101562 C 557.214844 676.808594 579.15625 673.199219 600.003906 669.265625 M 594.585938 683.460938 L 595.957031 679.894531 C 575.109375 683.734375 553.214844 687.277344 530.261719 690.523438 L 528.960938 694.023438 C 551.910156 690.820312 573.785156 687.300781 594.585938 683.460938 M 476.773438 707.121094 L 478.078125 703.621094 C 433.550781 708.285156 387.878906 710.160156 341.066406 709.246094 L 339.765625 712.605469 C 386.578125 713.566406 432.25 711.738281 476.773438 707.121094 M 482.808594 691.140625 L 471.359375 691.140625 C 430.535156 695.164062 388.75 696.832031 346.003906 696.148438 L 344.703125 699.507812 C 391.605469 700.332031 437.367188 698.296875 481.988281 693.40625 L 482.808594 691.140625 M 510.378906 743.191406 L 571.957031 743.191406 L 590.609375 694.089844 C 569.761719 697.839844 547.910156 701.289062 525.050781 704.445312 L 510.378906 743.191406 M 463.128906 743.191406 L 475.542969 710.480469 C 431.011719 715.050781 385.367188 716.808594 338.597656 715.757812 L 328.175781 743.191406 L 463.128906 743.191406 M 426.578125 645.332031 L 427.882812 641.835938 C 407.449219 642.980469 386.785156 643.574219 365.890625 643.621094 L 364.589844 647.046875 C 385.480469 647.003906 406.144531 646.429688 426.578125 645.332031 M 416.429688 672.148438 L 417.734375 668.71875 C 397.34375 669.675781 376.726562 670.089844 355.878906 669.953125 L 354.578125 673.3125 C 375.421875 673.496094 396.039062 673.105469 416.429688 672.148438 M 421.503906 658.773438 L 422.808594 655.277344 C 402.371094 656.328125 381.730469 656.832031 360.886719 656.785156 L 359.582031 660.214844 C 380.429688 660.257812 401.070312 659.78125 421.503906 658.773438 M 350.941406 683.050781 L 349.636719 686.410156 C 370.4375 686.683594 391.011719 686.386719 411.355469 685.519531 L 412.660156 682.160156 C 392.3125 682.980469 371.742188 683.277344 350.941406 683.050781 M 313.5 652.464844 C 313.957031 651.367188 314.414062 650.25 314.871094 649.105469 C 295.121094 648.28125 275.167969 646.957031 255.007812 645.128906 L 253.632812 648.417969 C 273.796875 650.25 293.75 651.597656 313.5 652.464844 M 307.742188 665.425781 C 308.242188 664.328125 308.769531 663.207031 309.316406 662.066406 C 289.613281 661.152344 269.75 659.757812 249.726562 657.882812 C 249.175781 658.933594 248.628906 660.007812 248.082031 661.105469 C 268.148438 663.027344 288.035156 664.464844 307.742188 665.425781 M 231.828125 682.363281 C 230.640625 683.414062 229.429688 684.421875 228.191406 685.382812 C 250 687.804688 271.601562 689.65625 292.996094 690.933594 C 293.726562 689.839844 294.460938 688.742188 295.191406 687.644531 C 274.296875 686.410156 253.175781 684.648438 231.828125 682.363281 M 261.175781 724.332031 C 265.976562 720.855469 270.574219 716.972656 274.960938 712.671875 C 218.136719 708.421875 159.710938 700.214844 99.683594 688.054688 C 98.175781 703.050781 100.28125 715.140625 105.996094 724.332031 C 116.554688 741.292969 139.273438 749.773438 174.15625 749.773438 C 209.039062 749.773438 238.046875 741.292969 261.175781 724.332031 M 300.953125 678.25 C 301.589844 677.152344 302.207031 676.03125 302.800781 674.890625 C 282.871094 673.835938 262.753906 672.304688 242.457031 670.292969 C 241.726562 671.347656 240.949219 672.398438 240.125 673.449219 C 260.605469 675.550781 280.882812 677.152344 300.953125 678.25 M 283.464844 703.484375 C 284.332031 702.433594 285.203125 701.359375 286.070312 700.261719 C 261.976562 698.660156 237.609375 696.375 212.96875 693.40625 C 209.859375 694.363281 206.5 695.050781 202.890625 695.460938 C 230.089844 698.980469 256.949219 701.65625 283.464844 703.484375 M 174.5 638.820312 L 175.597656 635.597656 C 156.535156 632.761719 137.308594 629.492188 117.925781 625.789062 L 116.761719 628.875 C 136.144531 632.578125 155.390625 635.894531 174.5 638.820312 M 166.546875 663.917969 C 166.773438 662.820312 167.023438 661.746094 167.300781 660.695312 C 147.917969 657.675781 128.394531 654.226562 108.738281 650.339844 C 108.324219 651.390625 107.960938 652.417969 107.640625 653.425781 C 127.433594 657.355469 147.070312 660.855469 166.546875 663.917969 M 170.25 651.300781 L 171.277344 648.144531 C 152.121094 645.21875 132.785156 641.859375 113.261719 638.066406 L 112.097656 641.152344 C 131.617188 644.945312 151 648.328125 170.25 651.300781 M 165.722656 676.125 C 165.675781 675.300781 165.652344 674.453125 165.652344 673.585938 C 145.539062 670.429688 125.242188 666.820312 104.757812 662.75 C 104.4375 663.804688 104.140625 664.832031 103.867188 665.835938 C 124.714844 669.996094 145.355469 673.699219 165.792969 676.945312 C 165.746094 676.671875 165.722656 676.398438 165.722656 676.125 M 174.019531 691.347656 C 173.5625 691.027344 173.128906 690.707031 172.71875 690.386719 C 171.664062 689.472656 170.726562 688.488281 169.90625 687.4375 C 147.367188 683.964844 124.601562 679.917969 101.605469 675.300781 C 101.421875 676.351562 101.238281 677.402344 101.054688 678.457031 C 125.605469 683.4375 149.925781 687.734375 174.019531 691.347656 "/>
</g>
</svg>