<?xml version="1.0" standalone="no"?>
<!DOCTYPE svg PUBLIC "-//W3C//DTD SVG 20010904//EN"
 "http://www.w3.org/TR/2001/REC-SVG-20010904/DTD/svg10.dtd">
<svg version="1.0" xmlns="http://www.w3.org/2000/svg"
 width="713.000000pt" height="713.000000pt" viewBox="0 0 713.000000 713.000000"
 preserveAspectRatio="xMidYMid meet">
<metadata>
Created by potrace 1.14, written by Peter Selinger 2001-2017
</metadata>
<g transform="translate(0.000000,713.000000) scale(0.100000,-0.100000)"
fill="#000000" stroke="none">
<path d="M3876 6338 c-217 -574 -350 -917 -463 -1186 -46 -112 -83 -210 -81
-217 2 -8 32 -45 68 -82 170 -177 340 -361 340 -367 0 -3 -440 -6 -977 -6
l-978 0 -32 -83 c-102 -265 -383 -1021 -383 -1030 0 -9 83 -5 162 8 23 3 235
32 293 40 17 2 66 9 110 15 44 6 94 13 111 15 1087 150 2144 339 3091 551 415
93 952 225 1008 248 39 17 45 27 90 147 l33 89 -677 0 c-372 0 -681 4 -688 8
-8 5 21 90 94 282 296 778 489 1286 524 1380 22 58 43 114 48 125 20 41 191
502 191 512 0 6 -19 13 -42 15 -24 3 -407 6 -853 7 l-810 2 -179 -473z"/>
<path d="M5875 4070 c-336 -84 -633 -154 -950 -221 -192 -41 -711 -146 -758
-153 -21 -3 -71 -13 -110 -21 -40 -8 -135 -26 -212 -40 -77 -14 -165 -30 -195
-35 -30 -6 -68 -12 -85 -15 -16 -3 -133 -23 -260 -44 -126 -22 -243 -42 -260
-44 -43 -7 -343 -55 -385 -61 -76 -13 -798 -115 -850 -121 -30 -3 -82 -10
-115 -15 -33 -5 -85 -12 -115 -15 -62 -7 -75 -9 -182 -26 -68 -10 -78 -14 -87
-38 -15 -39 -17 -56 -6 -55 6 1 39 5 75 8 36 4 99 11 140 17 41 5 93 12 115
15 38 4 88 11 145 19 14 2 63 9 110 15 47 6 195 27 330 46 135 19 259 37 275
39 29 5 525 82 575 90 14 2 108 18 210 35 102 17 199 33 215 36 17 2 75 13
130 24 55 10 116 21 135 24 69 10 668 126 832 160 524 110 735 158 1262 288
l248 61 14 33 c17 41 18 54 2 53 -7 0 -116 -27 -243 -59z"/>
<path d="M5895 3889 c-128 -33 -458 -114 -505 -124 -8 -2 -87 -20 -175 -40
-131 -30 -387 -85 -505 -109 -669 -135 -1263 -243 -1760 -320 -19 -3 -93 -15
-165 -26 -71 -12 -146 -23 -165 -26 -19 -3 -75 -12 -125 -19 -49 -8 -189 -28
-310 -45 -121 -17 -231 -33 -245 -35 -14 -2 -47 -6 -75 -9 -27 -4 -61 -8 -75
-11 -14 -2 -45 -6 -70 -9 -72 -9 -361 -46 -402 -53 -21 -3 -35 -9 -32 -14 3
-5 123 -7 267 -5 227 3 291 8 479 35 199 28 573 83 658 96 19 3 107 17 195 31
202 31 169 25 450 74 337 58 323 55 505 89 91 17 179 33 195 35 43 8 613 122
720 145 396 84 646 141 1036 237 l237 57 12 40 c6 21 10 40 8 41 -2 2 -70 -14
-153 -35z"/>
<path d="M5958 3725 c-7 -7 -536 -133 -863 -206 -405 -91 -1217 -249 -1600
-313 -321 -54 -618 -103 -770 -126 -288 -45 -307 -50 -182 -50 76 0 77 0 77
-25 0 -24 3 -25 33 -21 17 3 93 15 167 26 74 12 146 23 159 25 13 2 45 7 70
11 25 4 55 8 66 10 11 2 49 9 85 14 36 6 126 22 200 35 74 13 151 27 170 30
186 31 1073 203 1290 250 577 126 1013 231 1064 256 30 14 63 73 47 83 -4 3
-10 3 -13 1z"/>
<path d="M5650 3464 c-244 -61 -797 -185 -1065 -239 -158 -32 -484 -95 -555
-108 -75 -14 -107 -20 -120 -22 -8 -2 -53 -10 -100 -19 -47 -8 -101 -18 -120
-21 -19 -3 -82 -14 -140 -25 -100 -19 -812 -135 -895 -146 -60 -9 -87 -25
-102 -63 l-14 -34 53 7 c47 6 745 119 808 131 14 3 66 12 115 20 50 9 101 18
115 20 14 3 39 7 55 10 206 37 327 59 410 75 55 11 111 21 125 24 76 13 522
106 760 157 401 88 394 86 530 119 69 17 178 43 242 58 105 24 119 30 127 52
5 14 12 33 16 43 10 24 2 23 -245 -39z"/>
<path d="M5730 3300 c-101 -26 -694 -160 -905 -206 -290 -62 -291 -64 -46 -58
178 5 230 9 310 29 53 13 234 56 403 96 l307 73 15 43 c17 50 21 49 -84 23z"/>
<path d="M5607 3086 c-70 -18 -130 -35 -133 -38 -3 -3 52 -5 122 -4 l127 1 13
38 c7 20 10 37 6 36 -4 0 -64 -15 -135 -33z"/>
<path d="M4150 2958 c-443 -80 -978 -173 -1400 -242 -14 -2 -77 -12 -141 -22
l-117 -17 -11 -37 c-6 -21 -11 -40 -11 -44 0 -6 6 -6 205 25 72 11 141 22 155
24 30 5 504 84 540 91 14 2 115 20 225 38 262 45 645 115 668 122 19 6 50 58
45 78 -2 10 -39 6 -158 -16z"/>
<path d="M4205 2783 c-19 -4 -261 -50 -307 -58 -13 -2 -115 -20 -228 -40 -113
-19 -230 -40 -260 -45 -52 -10 -560 -93 -645 -105 -22 -4 -80 -13 -130 -20
-49 -8 -110 -17 -135 -20 -69 -9 -75 -13 -88 -48 -16 -43 -15 -46 6 -43 9 2
42 7 72 11 105 13 376 56 705 111 182 30 344 57 360 60 175 29 642 117 647
122 12 12 39 82 31 81 -5 -1 -17 -3 -28 -6z"/>
<path d="M3989 2565 c-91 -18 -187 -36 -212 -39 -26 -4 -52 -9 -59 -11 -7 -2
-83 -16 -168 -30 -85 -15 -166 -28 -180 -31 -14 -2 -146 -24 -295 -49 -236
-39 -348 -56 -510 -80 -57 -9 -155 -25 -187 -31 -17 -3 -32 -16 -42 -39 -23
-47 -20 -54 16 -49 99 13 467 72 783 125 334 55 462 77 670 115 44 7 134 23
200 35 66 11 124 25 130 30 12 12 35 89 26 88 -3 -1 -81 -16 -172 -34z"/>
<path d="M3950 2369 c-192 -36 -1133 -193 -1345 -224 -326 -47 -319 -45 -345
-95 l-20 -40 37 6 c21 3 63 9 93 14 30 5 147 23 260 40 395 58 1121 180 1318
221 105 21 116 27 131 70 12 35 11 35 -129 8z"/>
<path d="M3920 2185 c-41 -7 -127 -22 -190 -34 -63 -11 -155 -28 -205 -36 -49
-9 -101 -18 -115 -21 -14 -2 -108 -18 -210 -35 -102 -16 -196 -32 -210 -34
-56 -10 -278 -44 -315 -50 -23 -3 -50 -7 -60 -9 -11 -2 -105 -16 -210 -31
-104 -15 -193 -30 -197 -34 -4 -3 -14 -23 -23 -45 l-16 -39 58 6 c105 11 1133
176 1508 243 257 45 243 41 265 84 17 34 18 52 1 49 -3 -1 -40 -7 -81 -14z"/>
<path d="M3755 1969 c-340 -59 -581 -100 -605 -104 -161 -27 -384 -61 -610
-95 -398 -58 -399 -59 -417 -86 -24 -37 -11 -55 34 -49 21 3 54 8 73 10 19 3
51 7 70 10 291 40 1065 163 1259 200 9 2 88 15 176 30 88 15 165 32 171 39 21
22 34 64 21 69 -7 2 -84 -8 -172 -24z"/>
<path d="M3810 1799 c-30 -4 -107 -17 -170 -28 -114 -21 -663 -115 -730 -125
-19 -2 -98 -14 -175 -26 -77 -11 -156 -23 -175 -26 -19 -3 -46 -7 -60 -9 -14
-3 -117 -19 -229 -35 -111 -17 -207 -32 -211 -35 -10 -6 -34 -75 -28 -80 2 -2
33 0 68 5 36 5 88 12 115 15 28 4 62 8 76 11 14 2 158 24 320 49 162 25 319
50 349 55 30 5 71 11 90 14 140 21 718 119 766 131 14 3 28 20 38 46 9 23 16
42 14 43 -2 1 -28 -1 -58 -5z"/>
<path d="M3676 1589 c-55 -10 -113 -20 -130 -23 -17 -2 -71 -12 -121 -21 -49
-9 -101 -18 -115 -20 -14 -2 -38 -6 -55 -9 -206 -35 -798 -127 -905 -141 -25
-3 -56 -8 -70 -10 -14 -2 -45 -7 -70 -10 -25 -3 -56 -8 -70 -10 -14 -2 -43 -7
-65 -10 -94 -12 -86 -4 -139 -148 -27 -73 -55 -145 -62 -162 -19 -47 -276
-728 -282 -747 -4 -17 41 -18 842 -18 l846 0 15 38 c14 32 479 1256 490 1289
7 20 -6 21 -109 2z"/>
</g>
</svg>
