<svg width="77" height="45" viewBox="0 0 77 45" fill="none" xmlns="http://www.w3.org/2000/svg">
<rect width="77" height="45" rx="4" fill="#8CCE3C"/>
<path d="M53.9307 14.6001H59.8487V30.0001H57.2527V15.6561L58.3967 16.8001H53.9307V14.6001Z" fill="white"/>
<path fill-rule="evenodd" clip-rule="evenodd" d="M25.2068 19.8835C24.1057 19.8835 23.0046 19.8835 21.9036 19.8835C21.9036 22.7766 21.9036 25.6696 21.9036 28.5627C21.0615 28.5627 20.2195 28.5627 19.3775 28.5627C19.3775 25.6696 19.3775 22.7766 19.3775 19.8835C18.2764 19.8835 17.1753 19.8835 16.0742 19.8835C16.0742 19.1062 16.0742 18.329 16.0742 17.5518C19.1184 17.5518 22.1626 17.5518 25.2068 17.5518C25.2068 18.329 25.2068 19.1062 25.2068 19.8835Z" fill="white"/>
<path fill-rule="evenodd" clip-rule="evenodd" d="M44.638 28.4334C43.7858 28.4979 42.9222 28.5195 42.0472 28.4981C41.1496 26.3355 40.2321 24.1765 39.2944 22.0211C38.3662 24.191 37.4702 26.3716 36.6064 28.5629C35.7429 28.5629 34.8792 28.5629 34.0156 28.5629C34.0984 28.293 34.2063 28.0339 34.3395 27.7857C35.9431 24.3839 37.53 20.9727 39.1001 17.5519C39.2313 17.4078 39.3824 17.3862 39.5535 17.4872C41.2492 21.1376 42.944 24.7863 44.638 28.4334Z" fill="white"/>
<path fill-rule="evenodd" clip-rule="evenodd" d="M34.0156 28.5627C34.0984 28.2928 34.2063 28.0337 34.3394 27.7854C33.6124 26.6562 32.8999 25.5119 32.202 24.3526C33.0066 23.8023 33.5787 23.0682 33.9184 22.1504C34.3856 19.7709 33.4464 18.2704 31.1009 17.6489C29.4192 17.4481 27.7352 17.4373 26.0488 17.6165V28.4979H28.5749V24.9356C29.0619 24.9145 29.5368 24.9361 29.9998 25.0003L31.8134 28.4979C32.5462 28.5626 33.2802 28.5842 34.0156 28.5627ZM29.935 19.7864C29.5254 19.7541 29.0828 19.7506 28.672 19.7613C28.6515 20.3287 28.6567 20.8798 28.6618 21.4256C28.6664 21.9207 28.671 22.4114 28.6564 22.9058C29.0139 22.9135 29.329 22.888 29.6623 22.861C29.7924 22.8505 29.9253 22.8397 30.0646 22.8306C30.6216 22.7098 31.021 22.3967 31.2628 21.8915C31.6079 20.6836 31.1653 19.9819 29.935 19.7864Z" fill="white"/>
<path fill-rule="evenodd" clip-rule="evenodd" d="M25.2066 19.8838C24.1384 19.9484 23.059 19.9699 21.9681 19.9486C21.9896 22.831 21.968 25.7025 21.9033 28.563C21.9033 25.6699 21.9033 22.7769 21.9033 19.8838C23.0044 19.8838 24.1055 19.8838 25.2066 19.8838Z" fill="white"/>
<path fill-rule="evenodd" clip-rule="evenodd" d="M15.1672 20.855C15.1672 23.4026 15.1672 25.9503 15.1672 28.4979C14.3251 28.4979 13.4831 28.4979 12.6411 28.4979C12.6411 25.9503 12.6411 23.4026 12.6411 20.855C13.4831 20.855 14.3251 20.855 15.1672 20.855Z" fill="white"/>
<path fill-rule="evenodd" clip-rule="evenodd" d="M15.1675 20.8554C14.3255 20.8554 13.4834 20.8554 12.6414 20.8554C12.6414 23.403 12.6414 25.9507 12.6414 28.4983C13.4834 28.4983 14.3255 28.4983 15.1675 28.4983C14.3153 28.5628 13.4517 28.5844 12.5767 28.5631C12.5767 25.9723 12.5767 23.3815 12.5767 20.7907C13.4517 20.7693 14.3153 20.7909 15.1675 20.8554Z" fill="white"/>
<path fill-rule="evenodd" clip-rule="evenodd" d="M29.9998 25.0003C29.5464 25.0003 29.093 25.0003 28.6396 25.0003C28.6396 26.1877 28.6396 27.3752 28.6396 28.5627C27.7646 28.584 26.9009 28.5624 26.0488 28.4979C26.8908 28.4979 27.7329 28.4979 28.5749 28.4979C28.5749 27.3105 28.5749 26.123 28.5749 24.9355C29.0619 24.9145 29.5368 24.936 29.9998 25.0003Z" fill="white"/>
<path fill-rule="evenodd" clip-rule="evenodd" d="M44.6382 28.4331C44.6733 28.437 44.6949 28.4586 44.7029 28.4979C43.8073 28.5838 42.9222 28.5838 42.0474 28.4979C42.9224 28.5192 43.7861 28.4976 44.6382 28.4331Z" fill="white"/>
<circle cx="13.8533" cy="17.9226" r="1.4939" fill="white"/>
</svg>
