<svg width="78" height="45" viewBox="0 0 78 45" fill="none" xmlns="http://www.w3.org/2000/svg">
<rect x="0.5" width="77" height="45" rx="4" fill="#B53229"/>
<path d="M63.7388 17.5042C63.2695 17.1962 62.7268 16.9616 62.1108 16.8002C61.5095 16.6242 60.9155 16.5362 60.3288 16.5362C59.3315 16.5362 58.5101 16.7782 57.8648 17.2622C57.2195 17.7462 56.7428 18.4209 56.4348 19.2862C56.1415 20.1516 56.0095 21.1636 56.0388 22.3222C56.4495 21.5742 57.0068 21.0096 57.7108 20.6282C58.4295 20.2469 59.2728 20.0562 60.2408 20.0562C61.2675 20.0562 62.1475 20.2616 62.8808 20.6722C63.6288 21.0682 64.2008 21.6329 64.5968 22.3662C65.0075 23.0996 65.2128 23.9649 65.2128 24.9622C65.2128 26.0182 64.9855 26.9349 64.5308 27.7122C64.0908 28.4749 63.4601 29.0689 62.6388 29.4942C61.8321 29.9049 60.8788 30.1102 59.7788 30.1102C58.4881 30.1102 57.3735 29.8169 56.4348 29.2302C55.4961 28.6289 54.7701 27.7709 54.2568 26.6562C53.7581 25.5416 53.5088 24.1996 53.5088 22.6302C53.5088 20.9876 53.7801 19.5576 54.3228 18.3402C54.8655 17.1229 55.6355 16.1769 56.6328 15.5022C57.6301 14.8276 58.8035 14.4902 60.1528 14.4902C60.9155 14.4902 61.7148 14.6002 62.5508 14.8202C63.3868 15.0256 64.1201 15.3042 64.7508 15.6562L63.7388 17.5042ZM59.7568 21.9922C59.0675 21.9922 58.4735 22.1389 57.9748 22.4322C57.4761 22.7109 57.0948 23.0849 56.8308 23.5542C56.5815 24.0089 56.4568 24.5076 56.4568 25.0502C56.4568 25.3876 56.5155 25.7322 56.6328 26.0842C56.7501 26.4362 56.9408 26.7589 57.2048 27.0522C57.4688 27.3309 57.7988 27.5582 58.1948 27.7342C58.6055 27.9102 59.0895 27.9982 59.6468 27.9982C60.2775 27.9982 60.8275 27.8809 61.2968 27.6462C61.7661 27.3969 62.1328 27.0449 62.3968 26.5902C62.6608 26.1209 62.7928 25.5709 62.7928 24.9402C62.7928 24.0309 62.5215 23.3122 61.9788 22.7842C61.4361 22.2562 60.6955 21.9922 59.7568 21.9922Z" fill="white"/>
<path fill-rule="evenodd" clip-rule="evenodd" d="M26.2068 19.8835C25.1057 19.8835 24.0046 19.8835 22.9036 19.8835C22.9036 22.7766 22.9036 25.6696 22.9036 28.5627C22.0615 28.5627 21.2195 28.5627 20.3775 28.5627C20.3775 25.6696 20.3775 22.7766 20.3775 19.8835C19.2764 19.8835 18.1753 19.8835 17.0742 19.8835C17.0742 19.1062 17.0742 18.329 17.0742 17.5518C20.1184 17.5518 23.1626 17.5518 26.2068 17.5518C26.2068 18.329 26.2068 19.1062 26.2068 19.8835Z" fill="white"/>
<path fill-rule="evenodd" clip-rule="evenodd" d="M45.638 28.4334C44.7858 28.4979 43.9222 28.5195 43.0472 28.4981C42.1496 26.3355 41.2321 24.1765 40.2944 22.0211C39.3662 24.191 38.4702 26.3716 37.6064 28.5629C36.7429 28.5629 35.8792 28.5629 35.0156 28.5629C35.0984 28.293 35.2063 28.0339 35.3395 27.7857C36.9431 24.3839 38.53 20.9727 40.1001 17.5519C40.2313 17.4078 40.3824 17.3862 40.5535 17.4872C42.2492 21.1376 43.944 24.7863 45.638 28.4334Z" fill="white"/>
<path fill-rule="evenodd" clip-rule="evenodd" d="M35.0156 28.5627C35.0984 28.2928 35.2063 28.0337 35.3394 27.7854C34.6124 26.6562 33.8999 25.5119 33.202 24.3526C34.0066 23.8023 34.5787 23.0682 34.9184 22.1504C35.3856 19.7709 34.4464 18.2704 32.1009 17.6489C30.4192 17.4481 28.7352 17.4373 27.0488 17.6165V28.4979H29.5749V24.9356C30.0619 24.9145 30.5368 24.9361 30.9998 25.0003L32.8134 28.4979C33.5462 28.5626 34.2802 28.5842 35.0156 28.5627ZM30.935 19.7864C30.5254 19.7541 30.0828 19.7506 29.672 19.7613C29.6515 20.3287 29.6567 20.8798 29.6618 21.4256C29.6664 21.9207 29.671 22.4114 29.6564 22.9058C30.0139 22.9135 30.329 22.888 30.6623 22.861C30.7924 22.8505 30.9253 22.8397 31.0646 22.8306C31.6216 22.7098 32.021 22.3967 32.2628 21.8915C32.6079 20.6836 32.1653 19.9819 30.935 19.7864Z" fill="white"/>
<path fill-rule="evenodd" clip-rule="evenodd" d="M26.2066 19.8838C25.1384 19.9484 24.059 19.9699 22.9681 19.9486C22.9896 22.831 22.968 25.7025 22.9033 28.563C22.9033 25.6699 22.9033 22.7769 22.9033 19.8838C24.0044 19.8838 25.1055 19.8838 26.2066 19.8838Z" fill="white"/>
<path fill-rule="evenodd" clip-rule="evenodd" d="M16.1672 20.855C16.1672 23.4026 16.1672 25.9503 16.1672 28.4979C15.3251 28.4979 14.4831 28.4979 13.6411 28.4979C13.6411 25.9503 13.6411 23.4026 13.6411 20.855C14.4831 20.855 15.3251 20.855 16.1672 20.855Z" fill="white"/>
<path fill-rule="evenodd" clip-rule="evenodd" d="M16.1675 20.8554C15.3255 20.8554 14.4834 20.8554 13.6414 20.8554C13.6414 23.403 13.6414 25.9507 13.6414 28.4983C14.4834 28.4983 15.3255 28.4983 16.1675 28.4983C15.3153 28.5628 14.4517 28.5844 13.5767 28.5631C13.5767 25.9723 13.5767 23.3815 13.5767 20.7907C14.4517 20.7693 15.3153 20.7909 16.1675 20.8554Z" fill="white"/>
<path fill-rule="evenodd" clip-rule="evenodd" d="M30.9998 25.0003C30.5464 25.0003 30.093 25.0003 29.6396 25.0003C29.6396 26.1877 29.6396 27.3752 29.6396 28.5627C28.7646 28.584 27.9009 28.5624 27.0488 28.4979C27.8908 28.4979 28.7329 28.4979 29.5749 28.4979C29.5749 27.3105 29.5749 26.123 29.5749 24.9355C30.0619 24.9145 30.5368 24.936 30.9998 25.0003Z" fill="white"/>
<path fill-rule="evenodd" clip-rule="evenodd" d="M45.6382 28.4331C45.6733 28.437 45.6949 28.4586 45.7029 28.4979C44.8073 28.5838 43.9222 28.5838 43.0474 28.4979C43.9224 28.5192 44.7861 28.4976 45.6382 28.4331Z" fill="white"/>
<circle cx="14.8533" cy="17.9226" r="1.4939" fill="white"/>
</svg>